<?xml version="1.0" encoding="UTF-8" standalone="no"?>
<svg
   id="svg3965"
   height="143.48991"
   width="696.26434"
   version="1.1"
   sodipodi:docname="logo-with-text.svg"
   inkscape:version="1.1.2 (0a00cf5339, 2022-02-04)"
   xmlns:inkscape="http://www.inkscape.org/namespaces/inkscape"
   xmlns:sodipodi="http://sodipodi.sourceforge.net/DTD/sodipodi-0.dtd"
   xmlns="http://www.w3.org/2000/svg"
   xmlns:svg="http://www.w3.org/2000/svg"
   xmlns:rdf="http://www.w3.org/1999/02/22-rdf-syntax-ns#"
   xmlns:cc="http://creativecommons.org/ns#"
   xmlns:dc="http://purl.org/dc/elements/1.1/">
  <sodipodi:namedview
     id="namedview51"
     pagecolor="#505050"
     bordercolor="#eeeeee"
     borderopacity="1"
     inkscape:pageshadow="0"
     inkscape:pageopacity="0"
     inkscape:pagecheckerboard="0"
     showgrid="false"
     inkscape:zoom="1.0847405"
     inkscape:cx="227.70423"
     inkscape:cy="-35.03142"
     inkscape:window-width="1920"
     inkscape:window-height="1011"
     inkscape:window-x="0"
     inkscape:window-y="32"
     inkscape:window-maximized="1"
     inkscape:current-layer="svg3965"
     fit-margin-top="5"
     fit-margin-left="5"
     fit-margin-right="5"
     fit-margin-bottom="5" />
  <defs
     id="defs3967">
    <rect
       x="634.60852"
       y="15.031731"
       width="80.903793"
       height="51.043617"
       id="rect14139" />
  </defs>
  <metadata
     id="metadata3970">
    <rdf:RDF>
      <cc:Work
         rdf:about="">
        <dc:format>image/svg+xml</dc:format>
        <dc:type
           rdf:resource="http://purl.org/dc/dcmitype/StillImage" />
      </cc:Work>
    </rdf:RDF>
  </metadata>
  <path
     style="fill:#72706f;fill-rule:evenodd"
     id="_76325656"
     d="M 321.28869,28.492835 H 303.8542 v 53.259448 c 0,12.19996 -4.0546,18.466647 -16.88846,18.466647 -12.80906,0 -16.27512,-6.546608 -16.27512,-18.466647 V 28.492835 h -8.84374 c -2.50334,0 -4.58079,0.982914 -6.26279,2.828977 -1.68449,1.847834 -2.58059,3.996496 -2.58059,6.501614 v 45.897873 c 0,23.583891 10.59661,31.178971 33.55299,31.178971 9.32315,0 21.55287,-0.8798 28.30216,-8.23571 5.50984,-6.00519 6.43004,-15.162868 6.43004,-22.943261 z"
     inkscape:export-filename="/home/gaylybailey/Documents/Programming/gr4/docs/logo.png"
     inkscape:export-xdpi="600"
     inkscape:export-ydpi="600" />
  <path
     style="fill:#72706f;fill-rule:evenodd"
     id="_76325560"
     d="m 176.40641,114.79822 h 17.18008 V 54.877362 l 35.14075,59.070468 0.53185,0.85039 h 4.55846 l 12.86823,-0.006 -0.004,-0.79724 V 28.492855 H 229.50205 V 87.522578 L 194.61997,28.492855 h -9.36532 c -2.44027,0.16689 -4.54004,1.10126 -6.27059,2.832166 -1.73445,1.73374 -2.57811,3.81437 -2.57811,6.265984 v 77.207235 z"
     inkscape:export-filename="/home/gaylybailey/Documents/Programming/gr4/docs/logo.png"
     inkscape:export-xdpi="600"
     inkscape:export-ydpi="600" />
  <path
     style="fill:#72706f;fill-rule:evenodd"
     id="_76325464"
     d="m 169.69539,57.098307 -0.0946,-0.635315 C 168.34434,48.072441 164.4552,41.147048 157.84056,35.814725 l -0.007,-0.0067 -0.0106,-0.0074 c -7.39559,-5.456693 -16.27583,-7.417913 -25.33854,-7.417913 -11.17028,0 -20.94059,3.582637 -28.50414,11.983818 -7.75204,8.652402 -10.29118,19.940669 -10.29118,31.281023 0,11.466496 2.5852,22.874881 10.53319,31.542867 7.34351,8.36717 17.06882,11.74287 28.01976,11.74287 4.70091,0 9.32811,-0.80362 13.66725,-2.64189 l 0.0106,-0.005 0.0142,-0.006 c 3.25949,-1.57111 6.03709,-3.82748 8.37815,-6.57496 l 0.15839,-0.18603 v 9.41421 h 15.3783 V 68.354733 h -29.63728 v 14.47937 h 13.07516 l -0.0213,0.107362 c -0.90036,4.557048 -2.80524,8.731772 -6.28795,11.893819 -3.63934,3.149639 -8.0993,4.350469 -12.84237,4.350469 -6.45838,0 -12.18153,-1.96299 -16.3233,-7.103264 -4.64599,-5.721024 -6.01973,-13.246299 -6.01973,-20.434606 0,-7.172008 1.37268,-14.579645 5.78445,-20.421496 3.99331,-4.952125 9.32492,-7.096535 15.61146,-7.096535 4.21653,0 8.65382,0.73878 12.18012,3.196772 1.80389,1.381181 3.41397,3.035551 4.55279,5.015197 1.65012,3.122716 4.27358,4.756889 7.81476,4.756889 h 11.95973 z"
     inkscape:export-filename="/home/gaylybailey/Documents/Programming/gr4/docs/logo.png"
     inkscape:export-xdpi="600"
     inkscape:export-ydpi="600" />
  <path
     d="m 409.91034,64.485394 h 16.43492 c 0.8217,-1.780867 2.12634,-3.026339 3.9802,-3.694252 1.9885,-0.71752 4.11661,-0.998859 6.22417,-0.998859 3.94548,0 11.00658,0.721418 10.99843,6.029646 -0.004,2.321575 -0.0177,4.644567 0.007,6.966142 l 7e-4,0.08858 -0.0886,0.0021 c -5.95842,0.141732 -12.12094,0.144921 -18.03862,0.831969 -4.54854,0.527952 -9.19843,1.533897 -13.11449,4.015984 -0.73807,0.467716 -1.4446,0.983976 -2.11358,1.546299 -4.51417,3.794173 -6.03496,9.03685 -6.03496,14.792244 0,13.389093 9.24732,20.716293 22.14921,20.732243 h 0.25228 c 3.35658,-0.011 6.7376,-0.26788 10.07469,-0.61229 2.40449,-0.26256 4.76398,-0.80114 7.0402,-1.61823 l 0.12047,-0.0432 v 2.24858 h 15.74504 c 7.1e-4,-16.648227 0.16228,-33.295744 0.16228,-49.943972 0,-5.841851 -2.32016,-10.475079 -7.14827,-13.793031 -5.7033,-3.897284 -14.03504,-4.698426 -20.75102,-4.698426 -6.6522,0 -13.78913,1.236615 -19.00949,5.666103 -3.92279,3.274724 -6.2185,7.425708 -6.8896,12.482362 z m 37.89106,21.064605 v 4.023425 c -0.0319,2.975315 -0.21224,6.412677 -2.44771,8.648859 -2.88673,2.887437 -8.63398,3.373577 -12.50327,3.373577 -2.1972,0 -5.36917,-0.2824 -7.0487,-1.866967 -2.58413,-2.43744 -2.42433,-6.571768 -1.11331,-9.611925 1.13174,-2.625945 5.3387,-3.501851 7.83922,-3.89126 4.86708,-0.758268 10.2607,-0.729567 15.18484,-0.676772 l 0.0889,0.0011 z"
     id="_76324888"
     style="fill:#ff6905;fill-rule:evenodd"
     inkscape:export-filename="/home/gaylybailey/Documents/Programming/gr4/docs/logo.png"
     inkscape:export-xdpi="600"
     inkscape:export-ydpi="600" />
  <path
     d="m 585.14105,113.94039 c 5.49815,1.21748 11.01472,1.09453 16.45193,-0.38055 6.32196,-1.3787 11.28791,-4.90996 15.08315,-10.12571 2.01082,-2.92252 3.42212,-6.289717 4.455,-9.671099 1.33157,-4.333819 1.73161,-9.091772 1.73161,-13.607362 0,-6.595158 -1.15087,-13.157008 -4.20343,-19.055551 -2.9583,-6.06437 -7.5607,-10.388267 -13.83838,-12.87 -5.8989,-2.148661 -12.15142,-2.431771 -18.33272,-1.6037 -6.60578,0.887598 -12.18897,3.734645 -16.56319,8.777125 -2.8357,3.198544 -4.67504,7.019292 -5.80252,11.121378 -1.22031,4.364291 -1.85988,8.843386 -1.85988,13.376693 0,5.332322 0.71433,10.607244 2.21918,15.72555 1.38259,4.653776 3.71374,8.812906 7.4257,12.004016 3.70134,3.32185 8.43272,5.2285 13.23355,6.30921 z M 578.9555,81.027322 c -0.26717,-5.931496 0.56338,-12.498306 4.72606,-17.067047 1.43504,-1.408818 3.60673,-2.298188 5.49992,-2.880708 2.50583,-0.749764 5.02512,-0.699449 7.50614,0.127913 2.88142,0.960236 5.01555,3.254173 6.6104,5.752914 2.39208,3.721181 2.87185,9.138543 2.87185,13.451102 -0.11445,4.474488 -0.68741,10.591653 -3.23292,14.422676 -1.67563,2.513271 -3.91393,4.765391 -6.88748,5.625708 -2.55401,0.73878 -5.1183,0.66118 -7.61421,-0.25618 -1.87476,-0.688817 -4.02413,-1.733387 -5.24657,-3.372517 -3.25134,-3.917837 -4.02662,-10.917286 -4.23319,-15.803861 z"
     id="_97397504"
     style="fill:#ff6905;fill-rule:evenodd"
     inkscape:export-filename="/home/gaylybailey/Documents/Programming/gr4/docs/logo.png"
     inkscape:export-xdpi="600"
     inkscape:export-ydpi="600" />
  <path
     style="fill:#72706f;fill-rule:evenodd"
     id="path3476"
     d="m 538.61034,41.62043 h 17.18008 v -5.11795 c 0,-2.30776 -0.81921,-4.275 -2.45091,-5.90634 -1.06689,-1.06689 -2.31838,-1.83047 -3.77291,-2.19756 l -10.95626,7.1e-4 z"
     inkscape:export-filename="/home/gaylybailey/Documents/Programming/gr4/docs/logo.png"
     inkscape:export-xdpi="600"
     inkscape:export-ydpi="600" />
  <path
     d="m 538.61034,46.358189 v 68.378381 h 17.18008 V 54.694173 c 0,-2.29748 -0.82666,-4.261181 -2.45091,-5.885078 -1.62425,-1.624252 -3.5876,-2.450906 -5.88508,-2.450906 z"
     id="_97397312"
     style="fill:#ff6905;fill-rule:evenodd"
     inkscape:export-filename="/home/gaylybailey/Documents/Programming/gr4/docs/logo.png"
     inkscape:export-xdpi="600"
     inkscape:export-ydpi="600" />
  <path
     style="fill:#ff6905;fill-rule:evenodd"
     id="path3480"
     d="m 515.36979,28.39929 v 28.24937 l -0.16583,-0.2615 c -2.01756,-3.17586 -4.68602,-5.71322 -7.90653,-7.65425 -3.36898,-1.77555 -7.09654,-2.46578 -10.88079,-2.46578 -7.93594,0 -14.21291,3.36862 -19.02401,9.63956 -5.47052,7.15748 -7.17981,16.18264 -7.17981,25.011144 0,8.7665 1.6363,17.932329 7.1791,24.988816 2.5735,3.27827 5.94779,5.46095 9.88724,6.78756 4.07906,1.40173 8.29843,2.11217 12.60957,2.11217 7.91185,0 15.27838,-2.07319 22.0337,-6.18981 8.20453,-4.98401 10.14023,-14.810306 10.14023,-23.739796 V 36.48087 c 0,-2.24185 -0.91878,-4.14709 -2.45232,-5.75965 -1.06547,-1.12039 -2.32937,-1.93748 -3.82075,-2.32264 z m -3.74386,37.56154 c 2.90268,4.06842 3.74386,9.301894 3.74386,14.194844 0,5.00102 -0.6502,10.9187 -3.48874,15.18874 -2.5565,3.583699 -6.10866,5.245856 -10.48925,5.245856 -4.43658,0 -8.13012,-1.583147 -10.74331,-5.245146 -3.02315,-4.23815 -3.74279,-10.12075 -3.74279,-15.18945 0,-4.78311 0.80185,-10.018704 3.74315,-13.940434 2.50441,-3.51 5.92618,-5.24516 10.23484,-5.24516 4.36181,0 7.99972,1.5672 10.74224,4.99075 z"
     inkscape:export-filename="/home/gaylybailey/Documents/Programming/gr4/docs/logo.png"
     inkscape:export-xdpi="600"
     inkscape:export-ydpi="600" />
  <path
     d="m 334.86664,114.73905 h 17.43343 V 80.319724 h 18.69909 c 9.58465,0 13.41851,4.896142 13.41851,14.162598 v 0.217559 c -0.002,2.819052 -0.0457,5.638109 -0.0397,8.457159 l -3.5e-4,0.14386 c -0.003,1.53036 0.007,3.06142 0.04,4.59284 v 6.84531 H 401.8514 V 91.471574 c 0.15909,-4.833779 -0.86493,-9.762165 -3.94654,-13.601338 -1.81524,-2.261339 -4.34799,-4.113071 -7.09866,-5.060551 l -0.2452,-0.08433 0.24484,-0.08575 c 3.8863,-1.358858 7.2241,-3.59185 9.37524,-7.161378 2.5774,-3.877795 3.45721,-8.504645 3.45721,-13.097834 0,-6.807756 -1.69689,-13.38626 -6.91335,-18.055275 -5.42374,-4.806142 -13.54181,-5.925827 -20.51787,-5.925827 h -32.49709 c -2.44063,0 -4.53898,0.850394 -6.26563,2.577756 -1.72772,1.727362 -2.57776,3.825 -2.57776,6.265984 v 77.496019 z m 48.08977,-68.883302 c 2.49945,2.127756 3.2485,5.330551 3.2485,8.493307 0,3.169488 -0.74303,6.381142 -3.24992,8.515984 -2.66457,2.246811 -6.62634,2.752087 -9.98717,2.752087 H 352.30007 V 42.847835 h 21.66271 c 3.21733,0 6.63874,0.652677 8.99363,3.007913 z"
     id="_97397120"
     style="fill:#ff6905;fill-rule:evenodd"
     inkscape:export-filename="/home/gaylybailey/Documents/Programming/gr4/docs/logo.png"
     inkscape:export-xdpi="600"
     inkscape:export-ydpi="600" />
  <path
     style="fill:#ff6905;fill-rule:evenodd"
     id="path3486"
     d="M 11.067205,26.31831 C 15.616102,18.28457 25.043425,12.7641 35.93307,12.7641 c 10.854212,0 20.255669,5.48503 24.821574,13.4759 l 5.541025,-5.68453 C 60.082125,11.23268 48.807676,5 35.93307,5 22.965984,5 11.621732,11.32303 5.43689,20.7578 Z"
     inkscape:export-filename="/home/gaylybailey/Documents/Programming/gr4/docs/logo.png"
     inkscape:export-xdpi="600"
     inkscape:export-ydpi="600" />
  <path
     style="fill:#ff6905;fill-rule:evenodd"
     id="path3488"
     d="m 35.866102,18.54925 c -9.484725,0 -17.688189,4.48441 -21.598228,10.99595 l 5.61685,5.5474 c 2.163189,-5.05347 8.501457,-8.71335 15.981378,-8.71335 7.554684,0 13.94433,3.73358 16.044448,8.86536 l 5.554488,-5.69835 C 53.554999,23.03402 45.351534,18.54925 35.866102,18.54925 Z"
     inkscape:export-filename="/home/gaylybailey/Documents/Programming/gr4/docs/logo.png"
     inkscape:export-xdpi="600"
     inkscape:export-ydpi="600" />
  <path
     d="m 97.14434,138.21238 v -9.81799 H 93.6057 v -0.86732 q 0,-0.52039 0.34692,-0.86731 0.38162,-0.38162 0.90201,-0.38162 h 8.25683 v 2.11625 h -3.50395 v 9.81799 z"
     style="fill:#969594;fill-rule:evenodd"
     id="path4301"
     inkscape:export-filename="/home/gaylybailey/Documents/Programming/gr4/docs/logo.png"
     inkscape:export-xdpi="600"
     inkscape:export-ydpi="600" />
  <path
     d="m 107.55252,138.21238 v -10.68531 q 0,-0.52039 0.34693,-0.86731 0.38161,-0.38162 0.902,-0.38162 h 1.21424 v 4.44065 h 4.92635 v -4.44065 h 2.49786 v 11.93424 h -2.49786 v -5.30796 h -4.92635 v 5.30796 z"
     style="fill:#969594;fill-rule:evenodd"
     id="path4298"
     inkscape:export-filename="/home/gaylybailey/Documents/Programming/gr4/docs/logo.png"
     inkscape:export-xdpi="600"
     inkscape:export-ydpi="600" />
  <path
     d="m 121.91672,138.21238 v -10.68531 q 0,-0.52039 0.34692,-0.86731 0.38162,-0.38162 0.90201,-0.38162 h 7.42421 v 2.04686 h -6.24466 v 2.56725 h 4.6488 v 0.79793 q 0,0.52039 -0.38162,0.90201 -0.34692,0.34692 -0.86731,0.34692 h -3.39987 v 3.05295 h 6.24466 v 2.22032 z"
     style="fill:#969594;fill-rule:evenodd"
     id="path4295"
     inkscape:export-filename="/home/gaylybailey/Documents/Programming/gr4/docs/logo.png"
     inkscape:export-xdpi="600"
     inkscape:export-ydpi="600" />
  <path
     d="m 142.97778,138.21238 v -10.68531 q 0,-0.52039 0.34693,-0.86731 0.38162,-0.38162 0.90201,-0.38162 h 7.42421 v 2.04686 h -6.24467 v 2.56725 h 4.64881 v 0.79793 q 0,0.52039 -0.38162,0.90201 -0.34693,0.34692 -0.86731,0.34692 h -3.39988 v 5.27327 z"
     style="fill:#969594;fill-rule:evenodd"
     id="path4292"
     inkscape:export-filename="/home/gaylybailey/Documents/Programming/gr4/docs/logo.png"
     inkscape:export-xdpi="600"
     inkscape:export-ydpi="600" />
  <path
     d="m 156.05719,138.21238 v -10.68531 q 0,-0.52039 0.34693,-0.86731 0.38161,-0.38162 0.902,-0.38162 h 4.54473 q 1.94278,0 2.87948,0.83262 0.9714,0.86731 0.9714,2.53256 0,1.11016 -0.4857,1.8387 -0.41631,0.69386 -1.31832,1.00609 0.79793,0.27754 1.11016,0.83262 0.31224,0.52039 0.38162,1.76932 l 0.0694,1.4224 q 0,0.20815 0,0.451 0,0.24285 0.0347,0.451 0.10408,0.62447 0.41631,0.79793 h -2.70602 q -0.17346,-0.34692 -0.20816,-0.72854 -0.0694,-0.55508 -0.0694,-0.76324 l -0.0347,-1.28362 q -0.0694,-1.04078 -0.41631,-1.49178 -0.38162,-0.38162 -1.35301,-0.38162 h -2.60195 v 4.6488 h -2.46317 z m 2.46317,-6.73036 h 2.87949 q 0.9367,0 1.3877,-0.38161 0.451,-0.38162 0.451,-1.17955 0,-0.79793 -0.451,-1.17955 -0.41631,-0.41631 -1.24893,-0.41631 h -3.01826 z"
     style="fill:#969594;fill-rule:evenodd"
     id="path4289"
     inkscape:export-filename="/home/gaylybailey/Documents/Programming/gr4/docs/logo.png"
     inkscape:export-xdpi="600"
     inkscape:export-ydpi="600" />
  <path
     d="m 170.38635,138.21238 v -10.68531 q 0,-0.52039 0.34693,-0.86731 0.38162,-0.38162 0.90201,-0.38162 h 7.42421 v 2.04686 h -6.24467 v 2.56725 h 4.64881 v 0.79793 q 0,0.52039 -0.38162,0.90201 -0.34693,0.34692 -0.86731,0.34692 h -3.39988 v 3.05295 h 6.24467 v 2.22032 z"
     style="fill:#969594;fill-rule:evenodd"
     id="path4286"
     inkscape:export-filename="/home/gaylybailey/Documents/Programming/gr4/docs/logo.png"
     inkscape:export-xdpi="600"
     inkscape:export-ydpi="600" />
  <path
     d="m 183.46468,138.21238 v -10.68531 q 0,-0.52039 0.34692,-0.86731 0.38162,-0.38162 0.90201,-0.38162 h 7.42421 v 2.04686 h -6.24466 v 2.56725 h 4.6488 v 0.79793 q 0,0.52039 -0.38162,0.90201 -0.34692,0.34692 -0.86731,0.34692 h -3.39987 v 3.05295 h 6.24466 v 2.22032 z"
     style="fill:#969594;fill-rule:evenodd"
     id="path4283"
     inkscape:export-filename="/home/gaylybailey/Documents/Programming/gr4/docs/logo.png"
     inkscape:export-xdpi="600"
     inkscape:export-ydpi="600" />
  <path
     d="m 207.99535,132.97381 -0.62447,0.451 q -0.41631,0.31223 -0.55508,0.62447 -0.20815,0.38161 -0.20815,0.83262 0,0.65916 0.48569,1.14485 0.4857,0.4857 1.17955,0.4857 0.4857,0 1.00609,-0.20816 0.41631,-0.17346 0.86731,-0.62446 z m 0.62447,-2.53256 0.31223,-0.20816 q 0.38162,-0.27754 0.55508,-0.58977 0.20816,-0.34693 0.20816,-0.76324 0,-0.41631 -0.27754,-0.65916 -0.24285,-0.24285 -0.69386,-0.24285 -0.451,0 -0.69385,0.24285 -0.27754,0.27754 -0.27754,0.65916 0,0.13877 0.13877,0.4857 0.0347,0.17346 0.13877,0.31223 0.10408,0.13877 0.20816,0.27754 z m -1.80402,1.07547 -0.48569,-0.62447 q -0.38162,-0.451 -0.52039,-0.90201 -0.17347,-0.451 -0.17347,-0.902 0,-1.31832 0.86732,-2.04686 0.83262,-0.79793 2.25502,-0.79793 1.35301,0 2.15094,0.72854 0.79793,0.69385 0.79793,1.90809 0,0.9367 -0.45101,1.63055 -0.52039,0.72855 -1.49178,1.31832 l 1.73463,2.11625 q 0.20816,-0.38162 0.38162,-0.86732 0.10408,-0.65916 0.17346,-1.11016 h 1.24893 q 0.55509,0 0.65916,0.31223 0.10408,0.31224 0.0694,0.58978 -0.10408,0.48569 -0.27754,1.04077 -0.41631,0.9367 -0.97139,1.66525 l 2.18563,2.63663 h -2.77541 l -0.79793,-1.00608 q -0.38162,0.34693 -0.76323,0.62447 -0.38162,0.27754 -0.79793,0.38161 -1.14486,0.24285 -2.39379,0.13877 -1.24893,-0.10407 -2.11625,-0.79792 -1.00608,-0.9367 -1.00608,-2.49787 0,-1.14486 0.55508,-1.97748 0.58977,-0.83262 1.94278,-1.56116 z"
     style="fill:#969594;fill-rule:evenodd"
     id="path4280"
     inkscape:export-filename="/home/gaylybailey/Documents/Programming/gr4/docs/logo.png"
     inkscape:export-xdpi="600"
     inkscape:export-ydpi="600" />
  <path
     d="m 229.71693,132.24526 q 0,2.01217 0.86732,3.05295 0.86731,1.07547 2.46317,1.07547 1.56116,0 2.46317,-1.07547 0.90201,-1.11016 0.90201,-3.05295 0,-1.94278 -0.90201,-3.08764 -0.90201,-1.07547 -2.46317,-1.07547 -1.59586,0 -2.46317,1.07547 -0.86732,1.07547 -0.86732,3.08764 z m -2.46317,0 q 0,-2.91417 1.52647,-4.61411 1.63055,-1.69994 4.26719,-1.69994 2.60194,0 4.26719,1.69994 1.56116,1.73463 1.56116,4.61411 0,2.87949 -1.56116,4.57942 -1.59586,1.66524 -4.26719,1.66524 -2.70602,0 -4.26719,-1.66524 -1.52647,-1.66524 -1.52647,-4.57942 z"
     style="fill:#969594;fill-rule:evenodd"
     id="path4277"
     inkscape:export-filename="/home/gaylybailey/Documents/Programming/gr4/docs/logo.png"
     inkscape:export-xdpi="600"
     inkscape:export-ydpi="600" />
  <path
     d="m 245.88416,133.9452 v 4.26718 h -2.46317 v -10.68531 q 0,-0.52039 0.34693,-0.86731 0.38161,-0.38162 0.902,-0.38162 h 4.05903 q 1.9081,0 2.84479,0.97139 0.9714,0.97139 0.9714,2.87948 0,1.80402 -0.9367,2.8448 -0.9367,0.97139 -2.70602,0.97139 z m 0,-2.15094 h 2.39379 q 0.97139,0 1.3877,-0.41631 0.45101,-0.38162 0.45101,-1.31832 0,-0.79793 -0.41631,-1.28363 -0.4857,-0.41631 -1.28363,-0.41631 h -2.53256 z"
     style="fill:#969594;fill-rule:evenodd"
     id="path4274"
     inkscape:export-filename="/home/gaylybailey/Documents/Programming/gr4/docs/logo.png"
     inkscape:export-xdpi="600"
     inkscape:export-ydpi="600" />
  <path
     d="m 256.98477,138.21238 v -10.68531 q 0,-0.52039 0.34693,-0.86731 0.38162,-0.38162 0.902,-0.38162 h 7.42422 v 2.04686 h -6.24467 v 2.56725 h 4.64881 v 0.79793 q 0,0.52039 -0.38162,0.90201 -0.34693,0.34692 -0.86732,0.34692 h -3.39987 v 3.05295 h 6.24467 v 2.22032 z"
     style="fill:#969594;fill-rule:evenodd"
     id="path4271"
     inkscape:export-filename="/home/gaylybailey/Documents/Programming/gr4/docs/logo.png"
     inkscape:export-xdpi="600"
     inkscape:export-ydpi="600" />
  <path
     d="m 270.06665,138.21238 v -10.68531 q 0,-0.52039 0.34693,-0.86731 0.38161,-0.38162 0.902,-0.41631 h 1.31832 l 4.85696,8.22214 v -8.22214 h 2.42848 v 11.96893 h -2.53256 l -4.89165,-8.22214 v 8.22214 z"
     style="fill:#969594;fill-rule:evenodd"
     id="path4268"
     inkscape:export-filename="/home/gaylybailey/Documents/Programming/gr4/docs/logo.png"
     inkscape:export-xdpi="600"
     inkscape:export-ydpi="600" />
  <path
     d="m 292.37534,134.50028 h 2.42848 q 0.13877,1.04078 0.79793,1.45709 0.69385,0.48569 1.90809,0.48569 1.07547,0 1.63055,-0.38162 0.55508,-0.38161 0.55508,-1.11016 0,-1.11016 -3.12233,-1.80401 l -0.0694,-0.0347 q 0,0 -0.27754,-0.0694 -1.76932,-0.38162 -2.35909,-0.79793 -0.69386,-0.38162 -0.9714,-1.11016 -0.34692,-0.62447 -0.34692,-1.59586 0,-1.69994 1.17955,-2.67133 1.17954,-0.9367 3.43456,-0.9367 2.11625,0 3.2611,0.97139 1.17955,1.07547 1.24894,2.8101 h -1.38771 q -0.79793,0 -1.14485,-0.72854 v 0 q -0.17347,-0.34693 -0.4857,-0.58977 -0.62446,-0.45101 -1.69993,-0.45101 -1.04078,0 -1.49179,0.38162 -0.52038,0.38162 -0.52038,1.07547 0,0.9367 2.01217,1.3877 0.58977,0.17347 0.86731,0.20816 0.62447,0.20815 1.07547,0.34692 0.4857,0.10408 0.76324,0.17347 0.48569,0.20815 0.97139,0.41631 0.69385,0.41631 1.07547,1.07547 0.38162,0.72854 0.38162,1.59586 0,1.8734 -1.24894,2.91417 -1.24893,0.97139 -3.53864,0.97139 -2.35909,0 -3.53864,-1.00608 -1.28363,-1.00608 -1.3877,-2.98356 z"
     style="fill:#969594;fill-rule:evenodd"
     id="path4265"
     inkscape:export-filename="/home/gaylybailey/Documents/Programming/gr4/docs/logo.png"
     inkscape:export-xdpi="600"
     inkscape:export-ydpi="600" />
  <path
     d="m 322.52533,138.21238 v -10.68531 q 0,-0.52039 0.34693,-0.86731 0.38161,-0.38162 0.902,-0.38162 h 7.42421 v 2.04686 h -6.24466 v 2.56725 h 4.6488 v 0.79793 q 0,0.52039 -0.38161,0.90201 -0.34693,0.34692 -0.86732,0.34692 h -3.39987 v 5.27327 z"
     style="fill:#969594;fill-rule:evenodd"
     id="path4262"
     inkscape:export-filename="/home/gaylybailey/Documents/Programming/gr4/docs/logo.png"
     inkscape:export-xdpi="600"
     inkscape:export-ydpi="600" />
  <path
     d="m 339.14231,138.21238 v -9.81799 h -3.53864 v -0.86732 q 0,-0.52039 0.34692,-0.86731 0.38162,-0.38162 0.90201,-0.38162 h 8.25683 v 2.11625 h -3.50395 v 9.81799 z"
     style="fill:#969594;fill-rule:evenodd"
     id="path4259"
     inkscape:export-filename="/home/gaylybailey/Documents/Programming/gr4/docs/logo.png"
     inkscape:export-xdpi="600"
     inkscape:export-ydpi="600" />
  <path
     d="m 352.98471,138.21238 -3.43457,-11.93424 h 2.53256 l 2.04686,8.43029 1.73463,-8.43029 h 2.63663 l 1.69994,8.43029 1.83871,-7.52828 q 0.20815,-0.90201 1.21424,-0.90201 h 1.52647 l -3.39987,11.93424 h -2.3591 l -1.8387,-9.15884 -1.8734,9.15884 z"
     style="fill:#969594;fill-rule:evenodd"
     id="path4256"
     inkscape:export-filename="/home/gaylybailey/Documents/Programming/gr4/docs/logo.png"
     inkscape:export-xdpi="600"
     inkscape:export-ydpi="600" />
  <path
     d="m 374.63697,126.27814 h 1.94279 l 4.33657,11.93424 h -2.60194 l -0.79793,-2.46317 h -4.64881 l -0.76324,2.46317 h -2.60194 l 3.95496,-11.13631 q 0.31223,-0.79793 1.17954,-0.79793 z m 0.55508,2.39379 -1.66524,5.06511 h 3.33049 z"
     style="fill:#969594;fill-rule:evenodd"
     id="path4253"
     inkscape:export-filename="/home/gaylybailey/Documents/Programming/gr4/docs/logo.png"
     inkscape:export-xdpi="600"
     inkscape:export-ydpi="600" />
  <path
     d="m 385.46152,138.21238 v -10.68531 q 0,-0.52039 0.34692,-0.86731 0.38162,-0.38162 0.90201,-0.38162 h 4.54473 q 1.94278,0 2.87948,0.83262 0.97139,0.86731 0.97139,2.53256 0,1.11016 -0.48569,1.8387 -0.41631,0.69386 -1.31832,1.00609 0.79793,0.27754 1.11016,0.83262 0.31223,0.52039 0.38162,1.76932 l 0.0694,1.4224 q 0,0.20815 0,0.451 0,0.24285 0.0347,0.451 0.10408,0.62447 0.41631,0.79793 h -2.70602 q -0.17347,-0.34692 -0.20816,-0.72854 -0.0694,-0.55508 -0.0694,-0.76324 l -0.0347,-1.28362 q -0.0694,-1.04078 -0.41631,-1.49178 -0.38161,-0.38162 -1.35301,-0.38162 h -2.60194 v 4.6488 z m 2.46317,-6.73036 h 2.87948 q 0.9367,0 1.38771,-0.38161 0.451,-0.38162 0.451,-1.17955 0,-0.79793 -0.451,-1.17955 -0.41631,-0.41631 -1.24894,-0.41631 h -3.01825 z"
     style="fill:#969594;fill-rule:evenodd"
     id="path4250"
     inkscape:export-filename="/home/gaylybailey/Documents/Programming/gr4/docs/logo.png"
     inkscape:export-xdpi="600"
     inkscape:export-ydpi="600" />
  <path
     d="m 399.79068,138.21238 v -10.68531 q 0,-0.52039 0.34693,-0.86731 0.38161,-0.38162 0.902,-0.38162 h 7.42421 v 2.04686 h -6.24466 v 2.56725 h 4.64881 v 0.79793 q 0,0.52039 -0.38162,0.90201 -0.34693,0.34692 -0.86732,0.34692 h -3.39987 v 3.05295 h 6.24466 v 2.22032 z"
     style="fill:#969594;fill-rule:evenodd"
     id="path4247"
     inkscape:export-filename="/home/gaylybailey/Documents/Programming/gr4/docs/logo.png"
     inkscape:export-xdpi="600"
     inkscape:export-ydpi="600" />
  <path
     d="m 420.85211,138.21238 v -10.68531 q 0,-0.52039 0.34693,-0.86731 0.38162,-0.38162 0.902,-0.38162 h 4.54473 q 1.94279,0 2.87949,0.83262 0.97139,0.86731 0.97139,2.53256 0,1.11016 -0.4857,1.8387 -0.41631,0.69386 -1.31832,1.00609 0.79793,0.27754 1.11017,0.83262 0.31223,0.52039 0.38161,1.76932 l 0.0694,1.4224 q 0,0.20815 0,0.451 0,0.24285 0.0347,0.451 0.10408,0.62447 0.41631,0.79793 h -2.70602 q -0.17346,-0.34692 -0.20815,-0.72854 -0.0694,-0.55508 -0.0694,-0.76324 l -0.0347,-1.28362 q -0.0694,-1.04078 -0.41631,-1.49178 -0.38162,-0.38162 -1.35301,-0.38162 h -2.60195 v 4.6488 z m 2.46317,-6.73036 h 2.87949 q 0.9367,0 1.3877,-0.38161 0.451,-0.38162 0.451,-1.17955 0,-0.79793 -0.451,-1.17955 -0.41631,-0.41631 -1.24893,-0.41631 h -3.01826 z"
     style="fill:#969594;fill-rule:evenodd"
     id="path4244"
     inkscape:export-filename="/home/gaylybailey/Documents/Programming/gr4/docs/logo.png"
     inkscape:export-xdpi="600"
     inkscape:export-ydpi="600" />
  <path
     d="m 440.31571,126.27814 h 1.94279 l 4.33657,11.93424 h -2.60194 l -0.79793,-2.46317 h -4.64881 l -0.76323,2.46317 h -2.60195 l 3.95496,-11.13631 q 0.31223,-0.79793 1.17954,-0.79793 z m 0.55509,2.39379 -1.66525,5.06511 h 3.33049 z"
     style="fill:#969594;fill-rule:evenodd"
     id="path4241"
     inkscape:export-filename="/home/gaylybailey/Documents/Programming/gr4/docs/logo.png"
     inkscape:export-xdpi="600"
     inkscape:export-ydpi="600" />
  <path
     d="m 451.14026,138.21238 v -10.68531 q 0,-0.52039 0.34692,-0.86731 0.38162,-0.38162 0.90201,-0.38162 h 3.43457 q 2.74071,0 4.09372,1.45709 1.35301,1.52647 1.35301,4.51003 0,1.59586 -0.4857,2.87949 -0.55508,1.31831 -1.45708,2.01216 -0.76324,0.58978 -1.63055,0.83263 -0.83263,0.24284 -2.53256,0.24284 z m 2.39379,-2.15094 h 1.97747 q 1.69994,0 2.49787,-0.902 0.76324,-0.83262 0.76324,-2.91418 0,-2.01217 -0.72855,-2.94887 -0.69385,-0.9367 -2.22032,-0.9367 h -2.28971 z"
     style="fill:#969594;fill-rule:evenodd"
     id="path4238"
     inkscape:export-filename="/home/gaylybailey/Documents/Programming/gr4/docs/logo.png"
     inkscape:export-xdpi="600"
     inkscape:export-ydpi="600" />
  <path
     d="m 465.74579,138.21238 v -10.68531 q 0,-0.52039 0.34692,-0.86731 0.38162,-0.38162 0.90201,-0.38162 h 1.21424 v 11.93424 z"
     style="fill:#969594;fill-rule:evenodd"
     id="path4235"
     inkscape:export-filename="/home/gaylybailey/Documents/Programming/gr4/docs/logo.png"
     inkscape:export-xdpi="600"
     inkscape:export-ydpi="600" />
  <path
     d="m 474.55946,132.24526 q 0,2.01217 0.86732,3.05295 0.86731,1.07547 2.46317,1.07547 1.56116,0 2.46317,-1.07547 0.90201,-1.11016 0.90201,-3.05295 0,-1.94278 -0.90201,-3.08764 -0.90201,-1.07547 -2.46317,-1.07547 -1.59586,0 -2.46317,1.07547 -0.86732,1.07547 -0.86732,3.08764 z m -2.46317,0 q 0,-2.91417 1.52647,-4.61411 1.63055,-1.69994 4.26719,-1.69994 2.60194,0 4.26718,1.69994 1.56117,1.73463 1.56117,4.61411 0,2.87949 -1.56117,4.57942 -1.59585,1.66524 -4.26718,1.66524 -2.70602,0 -4.26719,-1.66524 -1.52647,-1.66524 -1.52647,-4.57942 z"
     style="fill:#969594;fill-rule:evenodd"
     id="path4232"
     inkscape:export-filename="/home/gaylybailey/Documents/Programming/gr4/docs/logo.png"
     inkscape:export-xdpi="600"
     inkscape:export-ydpi="600" />
  <path
     d="m 496.24661,138.21238 v -10.68531 q 0,-0.52039 0.34693,-0.86731 0.38162,-0.38162 0.90201,-0.38162 h 7.42421 v 2.04686 h -6.24467 v 2.56725 h 4.64881 v 0.79793 q 0,0.52039 -0.38162,0.90201 -0.34693,0.34692 -0.86731,0.34692 h -3.39988 v 3.05295 h 6.24467 v 2.22032 z"
     style="fill:#969594;fill-rule:evenodd"
     id="path4229"
     inkscape:export-filename="/home/gaylybailey/Documents/Programming/gr4/docs/logo.png"
     inkscape:export-xdpi="600"
     inkscape:export-ydpi="600" />
  <path
     d="m 519.97557,134.08397 q -0.17346,2.08155 -1.56116,3.2611 -1.4224,1.14485 -3.7468,1.14485 -2.70602,0 -4.12842,-1.63055 -1.42239,-1.56116 -1.42239,-4.61411 0,-3.12233 1.45708,-4.6835 1.49178,-1.63055 4.30188,-1.63055 2.28971,0 3.64272,1.14486 1.28363,1.11016 1.45709,3.12233 h -1.49178 q -0.83262,0 -1.17955,-0.72854 v 0 q -0.24284,-0.45101 -0.58977,-0.79793 -0.69385,-0.52039 -1.83871,-0.52039 -1.59586,0 -2.46317,1.04077 -0.83262,1.04078 -0.83262,3.05295 0,1.94279 0.83262,2.98356 0.79793,1.07547 2.39379,1.07547 1.11016,0 1.8387,-0.55508 0.65916,-0.52039 0.9367,-1.66524 z"
     style="fill:#969594;fill-rule:evenodd"
     id="path4226"
     inkscape:export-filename="/home/gaylybailey/Documents/Programming/gr4/docs/logo.png"
     inkscape:export-xdpi="600"
     inkscape:export-ydpi="600" />
  <path
     d="m 526.74177,132.24526 q 0,2.01217 0.86732,3.05295 0.86731,1.07547 2.46317,1.07547 1.56117,0 2.46317,-1.07547 0.90201,-1.11016 0.90201,-3.05295 0,-1.94278 -0.90201,-3.08764 -0.902,-1.07547 -2.46317,-1.07547 -1.59586,0 -2.46317,1.07547 -0.86732,1.07547 -0.86732,3.08764 z m -2.46317,0 q 0,-2.91417 1.52647,-4.61411 1.63055,-1.69994 4.26719,-1.69994 2.60194,0 4.26719,1.69994 1.56116,1.73463 1.56116,4.61411 0,2.87949 -1.56116,4.57942 -1.59586,1.66524 -4.26719,1.66524 -2.70602,0 -4.26719,-1.66524 -1.52647,-1.66524 -1.52647,-4.57942 z"
     style="fill:#969594;fill-rule:evenodd"
     id="path4223"
     inkscape:export-filename="/home/gaylybailey/Documents/Programming/gr4/docs/logo.png"
     inkscape:export-xdpi="600"
     inkscape:export-ydpi="600" />
  <path
     d="m 540.44586,134.50028 h 2.42848 q 0.13877,1.04078 0.79793,1.45709 0.69385,0.48569 1.90809,0.48569 1.07547,0 1.63055,-0.38162 0.55508,-0.38161 0.55508,-1.11016 0,-1.11016 -3.12233,-1.80401 l -0.0694,-0.0347 q 0,0 -0.27754,-0.0694 -1.76932,-0.38162 -2.3591,-0.79793 -0.69385,-0.38162 -0.97139,-1.11016 -0.34693,-0.62447 -0.34693,-1.59586 0,-1.69994 1.17955,-2.67133 1.17955,-0.9367 3.43457,-0.9367 2.11624,0 3.2611,0.97139 1.17955,1.07547 1.24893,2.8101 h -1.3877 q -0.79793,0 -1.14486,-0.72854 v 0 q -0.17346,-0.34693 -0.48569,-0.58977 -0.62447,-0.45101 -1.69994,-0.45101 -1.04078,0 -1.49178,0.38162 -0.52039,0.38162 -0.52039,1.07547 0,0.9367 2.01217,1.3877 0.58978,0.17347 0.86732,0.20816 0.62446,0.20815 1.07547,0.34692 0.48569,0.10408 0.76323,0.17347 0.4857,0.20815 0.97139,0.41631 0.69386,0.41631 1.07547,1.07547 0.38162,0.72854 0.38162,1.59586 0,1.8734 -1.24893,2.91417 -1.24893,0.97139 -3.53864,0.97139 -2.3591,0 -3.53865,-1.00608 -1.28362,-1.00608 -1.3877,-2.98356 z"
     style="fill:#969594;fill-rule:evenodd"
     id="path4220"
     inkscape:export-filename="/home/gaylybailey/Documents/Programming/gr4/docs/logo.png"
     inkscape:export-xdpi="600"
     inkscape:export-ydpi="600" />
  <path
     d="m 561.43652,138.21238 h -2.46317 v -4.44065 l -4.33657,-7.49359 h 3.01825 l 2.53256,5.1345 2.04686,-4.44065 q 0.34693,-0.69385 1.14486,-0.69385 h 1.97748 l -3.92027,7.49359 z"
     style="fill:#969594;fill-rule:evenodd"
     id="path4217"
     inkscape:export-filename="/home/gaylybailey/Documents/Programming/gr4/docs/logo.png"
     inkscape:export-xdpi="600"
     inkscape:export-ydpi="600" />
  <path
     d="m 569.86591,134.50028 h 2.42848 q 0.13877,1.04078 0.79793,1.45709 0.69385,0.48569 1.90809,0.48569 1.07547,0 1.63055,-0.38162 0.55508,-0.38161 0.55508,-1.11016 0,-1.11016 -3.12233,-1.80401 l -0.0694,-0.0347 q 0,0 -0.27754,-0.0694 -1.76932,-0.38162 -2.35909,-0.79793 -0.69386,-0.38162 -0.9714,-1.11016 -0.34692,-0.62447 -0.34692,-1.59586 0,-1.69994 1.17955,-2.67133 1.17954,-0.9367 3.43456,-0.9367 2.11625,0 3.2611,0.97139 1.17955,1.07547 1.24894,2.8101 h -1.38771 q -0.79793,0 -1.14485,-0.72854 v 0 q -0.17347,-0.34693 -0.4857,-0.58977 -0.62446,-0.45101 -1.69993,-0.45101 -1.04078,0 -1.49179,0.38162 -0.52038,0.38162 -0.52038,1.07547 0,0.9367 2.01217,1.3877 0.58977,0.17347 0.86731,0.20816 0.62447,0.20815 1.07547,0.34692 0.4857,0.10408 0.76324,0.17347 0.48569,0.20815 0.97139,0.41631 0.69385,0.41631 1.07547,1.07547 0.38162,0.72854 0.38162,1.59586 0,1.8734 -1.24894,2.91417 -1.24893,0.97139 -3.53864,0.97139 -2.35909,0 -3.53864,-1.00608 -1.28363,-1.00608 -1.3877,-2.98356 z"
     style="fill:#969594;fill-rule:evenodd"
     id="path4214"
     inkscape:export-filename="/home/gaylybailey/Documents/Programming/gr4/docs/logo.png"
     inkscape:export-xdpi="600"
     inkscape:export-ydpi="600" />
  <path
     d="m 587.59553,138.21238 v -9.81799 h -3.53865 v -0.86732 q 0,-0.52039 0.34693,-0.86731 0.38162,-0.38162 0.90201,-0.38162 h 8.25683 v 2.11625 h -3.50395 v 9.81799 z"
     style="fill:#969594;fill-rule:evenodd"
     id="path4211"
     inkscape:export-filename="/home/gaylybailey/Documents/Programming/gr4/docs/logo.png"
     inkscape:export-xdpi="600"
     inkscape:export-ydpi="600" />
  <path
     d="m 598.0033,138.21238 v -10.68531 q 0,-0.52039 0.34692,-0.86731 0.38162,-0.38162 0.90201,-0.38162 h 7.42421 v 2.04686 h -6.24466 v 2.56725 h 4.6488 v 0.79793 q 0,0.52039 -0.38162,0.90201 -0.34692,0.34692 -0.86731,0.34692 h -3.39987 v 3.05295 h 6.24466 v 2.22032 z"
     style="fill:#969594;fill-rule:evenodd"
     id="path4208"
     inkscape:export-filename="/home/gaylybailey/Documents/Programming/gr4/docs/logo.png"
     inkscape:export-xdpi="600"
     inkscape:export-ydpi="600" />
  <path
     d="m 611.08167,138.21238 v -10.68531 q 0,-0.52039 0.34692,-0.86731 0.38162,-0.38162 0.90201,-0.41631 h 2.39379 l 2.35909,9.12414 2.3591,-9.12414 h 3.64272 v 11.96893 h -2.28971 v -9.64453 l -2.42848,9.64453 h -2.53256 l -2.46318,-9.64453 v 9.64453 z"
     style="fill:#969594;fill-rule:evenodd"
     id="path4205"
     inkscape:export-filename="/home/gaylybailey/Documents/Programming/gr4/docs/logo.png"
     inkscape:export-xdpi="600"
     inkscape:export-ydpi="600" />
  <path
     style="fill:#ff6905;fill-rule:evenodd"
     id="path3484"
     d="m 75.937009,63.53047 c 3.50539,3.465 5.25827,7.69571 5.25827,12.691774 0,4.87524 -1.7426,9.05563 -5.2278,12.54083 -3.4852,3.4852 -7.64539,5.22779 -12.48024,5.22779 -3.39165,0 -6.447752,-0.82488 -9.167949,-2.47464 l -6.340748,6.340749 c 3.945473,4.488657 5.918032,9.839407 5.918032,16.051887 0,6.69649 -2.393504,12.43842 -7.180866,17.22578 -4.787008,4.78736 -10.501299,7.18087 -17.142874,7.18087 -6.751771,0 -12.535866,-2.38004 -17.350511,-7.13977 C 7.407323,126.41637 5,120.66063 5,113.90886 c 0,-6.75248 2.324055,-12.53587 6.973582,-17.350867 4.648819,-4.814999 10.349292,-7.222319 17.101417,-7.222319 5.988189,0 11.187992,1.78334 15.600827,5.34968 l 6.036023,-6.03567 c -3.409724,-3.437 -5.114409,-7.57948 -5.114409,-12.42744 0,-4.915634 1.692283,-9.126144 5.07685,-12.631534 0.314292,-0.32528 0.635315,-0.63567 0.962717,-0.93083 l -6.172795,-6.17279 c -2.681929,2.54799 -5.857441,3.82216 -9.526536,3.82216 -3.871062,0 -7.187598,-1.36453 -9.948188,-4.09358 -2.760945,-2.72906 -4.141418,-6.02929 -4.141418,-9.90071 0,-3.87142 1.332993,-7.18795 3.998622,-9.94854 2.66563,-2.76095 5.933977,-4.14142 9.805394,-4.14142 3.967086,0 7.330393,1.36488 10.091693,4.09394 2.760236,2.7287 4.140708,6.06082 4.140708,9.99602 0,2.69256 -0.674646,5.11583 -2.024291,7.27016 l 6.852756,6.85311 c 2.497677,-1.40351 5.301141,-2.10544 8.411457,-2.10544 5.03646,0 9.3072,1.73233 12.8126,5.19768 z M 35.937676,38.41339 c -2.189409,0 -4.030157,0.77704 -5.521535,2.3322 -1.491378,1.5548 -2.237244,3.4115 -2.237244,5.56937 0,2.22094 0.729921,4.07764 2.189764,5.56937 1.459842,1.49138 3.316181,2.23689 5.569015,2.23689 2.126339,0 3.927048,-0.76925 5.402835,-2.30846 1.475433,-1.53922 2.213149,-3.37182 2.213149,-5.4978 0,-1.0474 -0.190275,-2.04697 -0.571181,-2.99905 -0.380551,-0.95209 -0.920196,-1.77697 -1.618228,-2.47536 -0.698386,-0.72957 -1.531063,-1.31669 -2.499094,-1.76102 -0.967677,-0.44433 -1.943504,-0.66614 -2.927481,-0.66614 z m -6.364842,61.71448 c -3.818976,0 -7.028858,1.35567 -9.629645,4.06736 -2.601496,2.71205 -3.902244,5.94992 -3.902244,9.71363 0,3.87354 1.272755,7.11141 3.818976,9.71291 2.545512,2.60079 5.78374,3.90153 9.712913,3.90153 3.708071,0 6.848858,-1.34185 9.422362,-4.02661 2.57315,-2.6837 3.860433,-5.87976 3.860433,-9.58783 0,-1.82693 -0.332008,-3.56989 -0.996378,-5.23028 -0.664016,-1.66039 -1.604764,-3.09933 -2.822598,-4.31681 -1.217481,-1.27311 -2.670236,-2.29677 -4.358622,-3.07169 -1.687323,-0.77492 -3.389528,-1.16221 -5.105197,-1.16221 z M 63.487239,66.18972 c -2.780429,0 -5.11724,0.98681 -7.010784,2.96115 -1.893897,1.97433 -2.840669,4.33133 -2.840669,7.071374 0,2.82048 0.926575,5.17748 2.780079,7.07138 1.853504,1.89354 4.210512,2.84032 7.071374,2.84032 2.6993,0 4.98579,-0.97725 6.85949,-2.93138 1.87335,-1.95414 2.8102,-4.28067 2.8102,-6.98032 0,-1.3298 -0.24165,-2.599014 -0.72532,-3.807634 -0.4833,-1.20863 -1.16822,-2.25638 -2.05476,-3.14256 -0.88654,-0.92693 -1.94421,-1.67209 -3.17303,-2.23618 -1.22882,-0.56445 -2.46756,-0.84615 -3.71658,-0.84615 z"
     inkscape:export-filename="/home/gaylybailey/Documents/Programming/gr4/docs/logo.png"
     inkscape:export-xdpi="600"
     inkscape:export-ydpi="600" />
  <path
     d="m 308.82124,132.24526 q 0,2.01217 0.86731,3.05295 0.86732,1.07547 2.46318,1.07547 1.56116,0 2.46317,-1.07547 0.90201,-1.11016 0.90201,-3.05295 0,-1.94278 -0.90201,-3.08764 -0.90201,-1.07547 -2.46317,-1.07547 -1.59586,0 -2.46318,1.07547 -0.86731,1.07547 -0.86731,3.08764 z m -2.46317,0 q 0,-2.91417 1.52647,-4.61411 1.63055,-1.69994 4.26719,-1.69994 2.60194,0 4.26718,1.69994 1.56117,1.73463 1.56117,4.61411 0,2.87949 -1.56117,4.57942 -1.59585,1.66524 -4.26718,1.66524 -2.70602,0 -4.26719,-1.66524 -1.52647,-1.66524 -1.52647,-4.57942 z"
     style="fill:#969594;fill-rule:evenodd"
     id="path4202"
     inkscape:export-filename="/home/gaylybailey/Documents/Programming/gr4/docs/logo.png"
     inkscape:export-xdpi="600"
     inkscape:export-ydpi="600" />
  <g
     id="g35494"
     transform="translate(-16.934974,-3.437823)"
     inkscape:export-filename="/home/gaylybailey/Documents/Programming/gr4/docs/logo.png"
     inkscape:export-xdpi="600"
     inkscape:export-ydpi="600">
    <text
       xml:space="preserve"
       id="text14137"
       style="font-style:normal;font-weight:normal;font-size:40px;line-height:1.25;font-family:sans-serif;white-space:pre;shape-inside:url(#rect14139);fill:#30b3ba;fill-opacity:1;stroke:none"
       transform="translate(4.6446407,-12.296552)"><tspan
         x="634.60938"
         y="50.421875"
         id="tspan35734"><tspan
           style="font-weight:bold;font-family:'DejaVu Sans';-inkscape-font-specification:'DejaVu Sans, Bold'"
           id="tspan35732">4.0</tspan></tspan></text>
    <text
       xml:space="preserve"
       style="font-style:normal;font-weight:normal;font-size:40px;line-height:1.25;font-family:sans-serif;fill:#30b3ba;fill-opacity:1;stroke:none"
       x="640.93762"
       y="61.956181"
       id="text24129"><tspan
         sodipodi:role="line"
         id="tspan24127"
         x="640.93762"
         y="61.956181"
         style="font-style:normal;font-variant:normal;font-weight:bold;font-stretch:semi-condensed;font-size:29.3333px;font-family:'DejaVu Sans';-inkscape-font-specification:'DejaVu Sans, Bold Semi-Condensed';font-variant-ligatures:normal;font-variant-caps:normal;font-variant-numeric:normal;font-variant-east-asian:normal;fill:#30b3ba;fill-opacity:1">beta</tspan></text>
  </g>
</svg>
